<svg width="30" height="30" viewBox="0 0 30 30" fill="none" xmlns="http://www.w3.org/2000/svg">
    <path
        d="M7.675 18.7125L11.21 22.2462C10.9794 22.485 10.7035 22.6755 10.3985 22.8065C10.0935 22.9375 9.76545 23.0065 9.4335 23.0094C9.10155 23.0123 8.77236 22.949 8.46511 22.8233C8.15787 22.6976 7.87874 22.512 7.64401 22.2772C7.40928 22.0425 7.22365 21.7634 7.09795 21.4561C6.97224 21.1489 6.90899 20.8197 6.91187 20.4877C6.91476 20.1558 6.98372 19.8277 7.11475 19.5227C7.24577 19.2177 7.43622 18.9419 7.675 18.7112V18.7125ZM18.7587 25.3675L17.875 26.25L3.75 12.125L4.6325 11.2412L6.01 11.4375C6.9525 11.5725 8.1225 11.285 8.60625 10.8L13.4625 5.94499C14.8719 4.56214 16.7702 3.79162 18.7446 3.80099C20.7191 3.81036 22.61 4.59887 24.0062 5.99504C25.4024 7.39121 26.1909 9.28213 26.2003 11.2566C26.2096 13.2311 25.4391 15.1294 24.0563 16.5387L19.2 21.3962C18.715 21.8812 18.4275 23.05 18.5625 23.9925L18.7587 25.3675Z"
        fill="white" />
</svg>
